<?xml version="1.0" encoding="UTF-8" standalone="no"?>
<svg
   xmlns:dc="http://purl.org/dc/elements/1.1/"
   xmlns:cc="http://creativecommons.org/ns#"
   xmlns:rdf="http://www.w3.org/1999/02/22-rdf-syntax-ns#"
   xmlns:svg="http://www.w3.org/2000/svg"
   xmlns="http://www.w3.org/2000/svg"
   id="svg4526"
   version="1.1"
   viewBox="0 0 194.15021 88.927711"
   height="88.927711mm"
   width="194.15021mm">
  <defs
     id="defs4520" />
  <metadata
     id="metadata4523">
    <rdf:RDF>
      <cc:Work
         rdf:about="">
        <dc:format>image/svg+xml</dc:format>
        <dc:type
           rdf:resource="http://purl.org/dc/dcmitype/StillImage" />
        <dc:title></dc:title>
      </cc:Work>
    </rdf:RDF>
  </metadata>
  <g
     transform="translate(-11.169132,-200.21578)"
     id="layer1">
    <circle
       r="37.797619"
       cy="248.84587"
       cx="165.02173"
       id="path5071"
       style="opacity:1;fill:#ceffff;fill-opacity:1;fill-rule:nonzero;stroke:#d58080;stroke-width:5;stroke-linejoin:round;stroke-miterlimit:4;stroke-dasharray:none;stroke-opacity:1" />
    <path
       d="m 132.35292,215.47345 c -1.8227,-0.92176 -3.69387,-1.7343 -5.54876,-2.58642 -1.02741,-0.28305 -1.83168,-1.00317 -2.77596,-1.4444 -0.88079,-0.43267 -1.73743,-0.89766 -2.59364,-1.37595 -0.80385,-0.35537 -1.66554,-0.60315 -2.43488,-1.03046 -0.76116,-0.35613 -1.5823,-0.49357 -2.37546,-0.76509 -0.93063,-0.17138 -1.8361,-0.42864 -2.76217,-0.62574 -1.03153,-0.19524 -2.08318,-0.22388 -3.12971,-0.24497 -1.06801,-0.0134 -2.13614,-0.008 -3.2042,-0.006 -0.68104,0.20945 -1.4175,0.2018 -2.10366,0.37217 -0.30394,0.0755 -0.58716,0.21822 -0.88355,0.31934 -0.9547,0.25352 -1.92843,0.47764 -2.85013,0.8388 -0.93812,0.35961 -1.825031,0.84413 -2.763744,1.21843 -1.133276,0.50447 -2.25045,1.05098 -3.344592,1.64674 -2.886935,1.32044 -8.59417,4.68953 3.450963,-2.19555 -2.419745,1.39757 -4.839491,2.79514 -7.259238,4.19272 -0.156067,0.0653 -0.614294,0.28124 -0.468202,0.19592 2.134032,-1.24624 8.542973,-4.97156 6.435582,-3.68078 -2.361604,1.44649 -4.787005,2.78645 -7.198526,4.14809 -1.304393,0.73651 0.400743,-0.42674 -0.746736,0.38543 -0.802963,0.36656 -1.588686,0.76401 -2.350294,1.22363 -1.084728,0.58761 -2.20258,1.11348 -3.281736,1.71149 -1.174988,0.54325 -2.307039,1.16962 -3.450383,1.77728 -1.39445,0.70688 -2.825478,1.32921 -4.244007,1.98777 -1.134811,0.3277 -2.157486,0.90155 -3.227707,1.38178 -0.973492,0.41306 -1.892967,0.91279 -2.916381,1.22022 -1.113798,0.46951 -2.243949,0.87783 -3.382354,1.28311 -1.429297,0.43794 -2.831914,0.9551 -4.278206,1.33673 -1.493639,0.59757 -3.08116,0.8914 -4.603951,1.3805 -1.174565,0.29086 -2.330119,0.6303 -3.507148,0.91205 -0.994833,0.4486 -2.062202,0.62943 -3.139453,0.73275 -1.280565,0.1275 -2.548485,0.38434 -3.804245,0.67675 -1.382818,0.34042 -2.808515,0.38283 -4.224406,0.43186 -1.330762,0.25176 -2.674964,0.39944 -4.025257,0.4912 -1.15212,0.0674 -2.306556,0.0712 -3.46024,0.074 -1.070969,2.7e-4 -2.141939,-0.002 -3.212906,-0.003 -1.405475,0.002 -2.81082,-0.0119 -4.216289,-0.0154 -1.577113,-1.6e-4 -3.154216,0.007 -4.731322,0.0106 -1.120071,0.003 -2.240145,0.003 -3.360219,0.004 -0.930202,-0.056 -1.94399,-0.20277 -2.817884,-0.54868 -0.840808,-0.19674 -1.522886,-0.6604 -2.23386,-1.11884 -0.647148,-0.53958 -1.023363,-1.28901 -1.459176,-1.98913 -0.06661,-0.1197 -0.133226,-0.2394 -0.199839,-0.3591 0,0 6.911446,-3.97572 6.911446,-3.97572 v 0 c 0.06078,0.10927 0.12157,0.21855 0.182356,0.32782 0.369012,0.60298 0.683611,1.26704 1.27651,1.68969 0.65407,0.43187 1.354238,0.73649 2.112459,0.94288 0.875233,0.203 1.760997,0.40229 2.665542,0.35392 1.116869,2.7e-4 2.233739,8e-4 3.350606,0.003 1.567336,0.004 3.13467,0.0107 4.702014,0.0108 1.418648,-0.003 2.83719,-0.0173 4.255844,-0.0123 1.069705,0.001 2.139421,0.004 3.209126,-9e-5 1.139677,-0.008 2.280301,-0.0233 3.417009,-0.11392 1.350018,-0.11839 2.685015,-0.3436 4.034152,-0.46308 1.394394,-0.0702 2.784597,-0.1952 4.141052,-0.54632 1.276263,-0.27584 2.567797,-0.48771 3.865822,-0.62935 1.055682,-0.16888 2.061871,-0.48797 3.078522,-0.81174 1.155846,-0.31893 2.328317,-0.56706 3.475546,-0.91784 1.553524,-0.40221 3.074122,-0.89534 4.605416,-1.37345 1.429719,-0.42633 2.840609,-0.91355 4.255535,-1.38617 1.140547,-0.40213 2.249032,-0.88578 3.391379,-1.28372 0.976447,-0.38725 1.898882,-0.88852 2.869681,-1.28902 1.049356,-0.51352 2.143638,-0.90745 3.215455,-1.36872 1.410224,-0.65628 2.846615,-1.25992 4.208137,-2.01525 1.145759,-0.61444 2.305124,-1.20089 3.465414,-1.78733 1.100156,-0.56006 2.192108,-1.1364 3.273992,-1.73102 0.787635,-0.41508 1.579543,-0.81481 2.360797,-1.2395 0.254434,-0.11602 0.991653,-0.51662 0.749779,-0.37629 -2.143167,1.24342 -8.613992,4.90021 -6.434672,3.72132 2.441636,-1.3208 4.813348,-2.76696 7.2219,-4.14716 0.14233,-0.0816 0.57259,-0.32041 0.430691,-0.23811 -2.11506,1.22675 -4.233502,2.44766 -6.350253,3.67149 3.373612,-1.93667 6.663369,-3.95568 10.163869,-5.63341 1.12126,-0.56303 2.23934,-1.12767 3.39835,-1.61061 0.9194,-0.42092 1.8322,-0.86655 2.79924,-1.1681 0.95634,-0.27719 1.91037,-0.55864 2.86878,-0.82776 1.01278,-0.28565 2.07648,-0.42929 3.12444,-0.4957 1.07308,-0.001 2.14646,-0.005 3.21919,0.0271 1.08053,0.0445 2.16392,0.11723 3.21947,0.36917 0.94006,0.2265 1.89349,0.39894 2.8171,0.68566 0.81861,0.27015 1.68343,0.40821 2.43681,0.85431 0.82055,0.3502 1.65649,0.67032 2.45261,1.07301 0.84275,0.48755 1.72458,0.8945 2.58506,1.34906 0.89031,0.51272 1.74676,1.08575 2.72149,1.43932 1.84456,0.88907 3.71502,1.7226 5.56648,2.59732 0,0 -6.63027,4.36248 -6.63027,4.36248 z"
       id="path5081"
       style="opacity:1;fill:#ceffff;fill-opacity:1;fill-rule:nonzero;stroke:#d58080;stroke-width:5;stroke-linejoin:round;stroke-miterlimit:4;stroke-dasharray:none;stroke-opacity:1" />
  </g>
</svg>
