<?xml version="1.0" encoding="UTF-8" standalone="no"?>
<svg
   xmlns:dc="http://purl.org/dc/elements/1.1/"
   xmlns:cc="http://creativecommons.org/ns#"
   xmlns:rdf="http://www.w3.org/1999/02/22-rdf-syntax-ns#"
   xmlns:svg="http://www.w3.org/2000/svg"
   xmlns="http://www.w3.org/2000/svg"
   xmlns:sodipodi="http://sodipodi.sourceforge.net/DTD/sodipodi-0.dtd"
   xmlns:inkscape="http://www.inkscape.org/namespaces/inkscape"
   aria-hidden="true"
   focusable="false"
   data-prefix="fas"
   data-icon="bicycle"
   class="svg-inline--fa fa-bicycle fa-w-20"
   role="img"
   viewBox="0 0 400 400"
   version="1.1"
   id="svg4"
   sodipodi:docname="transportation.svg"
   inkscape:version="0.92.4 (5da689c313, 2019-01-14)"
   width="400"
   height="400">
  <metadata
     id="metadata10">
    <rdf:RDF>
      <cc:Work
         rdf:about="">
        <dc:format>image/svg+xml</dc:format>
        <dc:type
           rdf:resource="http://purl.org/dc/dcmitype/StillImage" />
        <dc:title></dc:title>
      </cc:Work>
    </rdf:RDF>
  </metadata>
  <defs
     id="defs8" />
  <sodipodi:namedview
     pagecolor="#ffffff"
     bordercolor="#666666"
     borderopacity="1"
     objecttolerance="10"
     gridtolerance="10"
     guidetolerance="10"
     inkscape:pageopacity="0"
     inkscape:pageshadow="2"
     inkscape:window-width="2560"
     inkscape:window-height="1356"
     id="namedview6"
     showgrid="false"
     inkscape:zoom="0.921875"
     inkscape:cx="385.3917"
     inkscape:cy="171.13438"
     inkscape:window-x="2552"
     inkscape:window-y="-8"
     inkscape:window-maximized="1"
     inkscape:current-layer="svg4"
     scale-x="1" />
  <path
     d="m 349.68479,133.38285 c -2.1168,-0.009 -4.14103,0.38204 -6.00353,1.09829 L 333.6383,118.30056 a 3.1028702,3.1028702 0 0 0 -2.63641,-1.46648 h -8.27431 c -1.14251,0 -2.06858,0.92607 -2.06858,2.06857 v 2.06859 c 0,1.1425 0.92607,2.06858 2.06858,2.06858 h 6.54822 l 1.92584,3.10287 h -14.67968 v -2.06858 c 0,-1.1425 -0.92608,-2.06858 -2.06857,-2.06858 h -11.30725 c -1.73774,0 -3.20332,1.42202 -3.17217,3.15937 0.03,1.68641 1.40612,3.04637 3.10222,3.04637 h 6.29961 l -3.80321,6.14369 c -1.73671,-0.62446 -3.60762,-0.96745 -5.55828,-0.97224 -9.07913,-0.022 -16.53662,7.37087 -16.58962,16.44986 -0.0537,9.18489 7.37616,16.64742 16.54864,16.64742 7.71088,0 14.1902,-5.27397 16.02723,-12.41148 h 6.72714 a 3.1028702,3.1028702 0 0 0 2.63823,-1.46959 l 11.1137,-17.95309 1.93127,3.11154 c -3.29097,3.0315 -5.35051,7.37979 -5.34042,12.2094 0.0188,8.89917 7.48554,16.42595 16.38432,16.51232 9.12838,0.0885 16.57204,-7.21457 16.71089,-16.28955 0.14041,-9.1717 -7.30803,-16.77101 -16.4809,-16.8067 z m -42.11616,9.53758 c 1.25757,1.36125 2.1556,3.05904 2.53945,4.94235 h -5.59888 z m -7.5953,17.35382 c -5.70309,0 -10.34291,-4.63982 -10.34291,-10.3429 0,-5.70306 4.63982,-10.34289 10.34291,-10.34289 0.75877,0 1.49791,0.0844 2.21066,0.24034 l -5.88318,9.50371 c -1.27747,2.06327 0.20906,4.73601 2.63823,4.73601 h 10.51097 c -1.59927,3.6491 -5.24411,6.20573 -9.47668,6.20573 z m 21.02582,-12.41147 h -4.60569 c -0.51198,-4.10561 -2.52833,-7.74347 -5.47954,-10.34627 l 3.19931,-5.16808 h 16.49008 z m 28.06249,12.39674 c -5.30539,-0.2799 -9.57352,-4.61448 -9.77753,-9.92336 -0.10499,-2.73066 0.85755,-5.23843 2.49975,-7.14476 l 5.74457,9.25509 c 0.60247,0.97069 1.87775,1.26907 2.84843,0.6666 l 1.75752,-1.09079 c 0.97069,-0.60247 1.26921,-1.87775 0.6666,-2.84843 l -5.7491,-9.26245 a 10.330101,10.330101 0 0 1 2.56737,-0.32284 c 5.70307,0 10.3429,4.63983 10.3429,10.34291 -1.3e-4,5.8877 -4.94546,10.64233 -10.90051,10.32803 z"
     id="path2"
     inkscape:connector-curvature="0"
     style="fill:#000000;stroke-width:0.12928624;fill-opacity:0.36888888" />
  <path
     inkscape:connector-curvature="0"
     style="fill:#000000;stroke-width:0.12187245;fill-opacity:0.36888888"
     d="m 86.530804,193.6994 h -0.97498 v -5.84988 c 0,-5.45988 -12.08975,-9.74978 -27.299436,-9.74978 -15.209679,0 -27.299432,4.2899 -27.299432,9.74978 v 5.84988 h -0.974974 c -1.61481,0 -2.924937,1.30892 -2.924937,2.92495 v 9.74979 c 0,1.61482 1.310127,2.92493 2.924937,2.92493 h 0.974974 v 19.4996 c 0,2.15348 1.746428,3.89992 3.899924,3.89992 v 3.89991 c 0,2.15349 1.746437,3.89992 3.899915,3.89992 h 3.899924 c 2.153487,0 3.899915,-1.74643 3.899915,-3.89992 v -3.89991 H 69.95615 v 3.89991 c 0,2.15349 1.746424,3.89992 3.899914,3.89992 h 3.89992 c 2.15348,0 3.89992,-1.74643 3.89992,-3.89992 v -3.89991 h 0.77998 c 1.94996,0 3.11994,-1.55997 3.11994,-3.11994 v -20.27958 h 0.97498 c 1.6148,0 2.92493,-1.31011 2.92493,-2.92493 v -9.74979 c 0,-1.61603 -1.31013,-2.92495 -2.92493,-2.92495 z m -45.824043,33.14931 c -2.153495,0 -3.899923,-1.74643 -3.899923,-3.89992 0,-2.15348 1.746428,-3.89991 3.899923,-3.89991 2.153479,0 3.899915,1.74643 3.899915,3.89991 0,2.15349 -1.746436,3.89992 -3.899915,3.89992 z M 42.656719,213.199 c -2.153496,0 -3.899924,-1.74643 -3.899924,-3.89993 V 193.6994 c 0,-2.15348 1.746428,-3.89992 3.899924,-3.89992 h 31.199345 c 2.15349,0 3.89992,1.74644 3.89992,3.89992 v 15.59967 c 0,2.1535 -1.74643,3.89993 -3.89992,3.89993 z m 33.149305,13.64971 c -2.15349,0 -3.89992,-1.74643 -3.89992,-3.89992 0,-2.15348 1.74643,-3.89991 3.89992,-3.89991 2.15349,0 3.89991,1.74643 3.89991,3.89991 0,2.15349 -1.74642,3.89992 -3.89991,3.89992 z"
     id="path2-6" />
  <path
     inkscape:connector-curvature="0"
     style="fill:#000000;stroke-width:0.11996607;fill-opacity:0.36888888"
     d="m 218.00796,185.00737 h -1.91947 l -13.0499,-16.31298 a 7.6808269,7.6808269 0 0 0 -5.99591,-2.8816 h -25.66194 c -3.1395,0 -5.9623,1.91107 -7.12838,4.82625 l -5.74757,14.63946 c -3.30626,0.85656 -5.75837,3.83291 -5.75837,7.4067 v 13.4362 c 0,1.0605 0.85896,1.91945 1.91946,1.91945 h 5.75836 c 0,6.3606 5.15615,11.51675 11.51675,11.51675 6.36059,0 11.51674,-5.15615 11.51674,-11.51675 h 15.35566 c 0,6.3606 5.15614,11.51675 11.51674,11.51675 6.3606,0 11.51674,-5.15615 11.51674,-11.51675 h 5.75838 c 1.06049,0 1.91945,-0.85895 1.91945,-1.91945 v -9.59729 c 0,-6.3606 -5.15615,-11.51674 -11.51674,-11.51674 z m -46.06697,28.79186 c -3.1755,0 -5.75837,-2.58287 -5.75837,-5.75838 0,-3.1755 2.58287,-5.75837 5.75837,-5.75837 3.1755,0 5.75837,2.58287 5.75837,5.75837 0,3.17551 -2.58287,5.75838 -5.75837,5.75838 z m 8.63755,-28.79186 h -13.80449 l 4.60669,-11.51674 h 9.1978 z m 5.75838,0 v -11.51674 h 10.70576 l 9.2134,11.51674 z m 23.99321,28.79186 c -3.17551,0 -5.75838,-2.58287 -5.75838,-5.75838 0,-3.1755 2.58287,-5.75837 5.75838,-5.75837 3.1755,0 5.75836,2.58287 5.75836,5.75837 0,3.17551 -2.58286,5.75838 -5.75836,5.75838 z"
     id="path2-4" />
  <path
     inkscape:connector-curvature="0"
     style="fill:#000000;stroke-width:0.13564095;fill-opacity:0.36888888"
     d="m 257.37451,50.339058 -17.36204,-2.170257 -6.51077,-2.170256 h -3.25538 L 214.39776,25.923682 h 5.35904 c 1.58239,0 2.89363,-0.356058 2.89363,-0.813844 0,-0.457787 -1.31124,-0.813851 -2.89363,-0.813851 h -15.55354 v 1.627695 h 2.17025 v 22.245119 h -6.51076 l -9.04278,-10.85128 h -4.70212 l -1.44688,1.446886 v 9.404394 h 1.08512 v 2.170257 h 6.51077 v 0.361612 l -8.68102,1.085129 v 5.787391 l 8.68102,1.085128 v 0.361758 h -6.51077 v 2.170248 h -1.08512 v 9.404397 l 1.44688,1.446887 h 4.70226 l 9.04264,-10.851284 h 6.51076 v 22.245114 h -2.17025 v 1.627697 h 15.55354 c 1.58252,0 2.89363,-0.356066 2.89363,-0.813853 0,-0.457787 -1.31124,-0.813844 -2.89363,-0.813844 h -5.35904 l 15.84856,-20.074857 h 3.25538 l 6.51077,-2.170257 17.36204,-2.170248 c 13.02154,-2.893636 13.02154,-3.605741 13.02154,-4.340513 0,-0.734773 0,-1.446878 -13.02154,-4.340505 z"
     id="path2-0" />
  <path
     inkscape:connector-curvature="0"
     style="fill:#000000;stroke-width:0.11869512;fill-opacity:0.36888888"
     d="m 86.095723,45.87307 v 30.385953 c 0,6.150184 -7.31448,11.394732 -15.432971,11.394732 l 7.475411,5.90163 c 0.70588,0.5574 0.30909,1.69486 -0.58849,1.69486 H 41.46636 c -0.899472,0 -1.292826,-1.13877 -0.588374,-1.69486 l 7.475301,-5.90163 c -8.095246,0 -15.432983,-5.228043 -15.432983,-11.394732 V 45.87307 c 0,-6.293097 7.596489,-11.394731 15.192978,-11.394731 h 22.789467 c 7.715174,0 15.192974,5.101634 15.192974,11.394731 z M 56.65933,62.015604 V 48.721752 c 0,-1.573304 -1.275373,-2.848682 -2.848686,-2.848682 H 41.46636 c -1.573304,0 -2.848685,1.275378 -2.848685,2.848682 v 13.293852 c 0,1.573304 1.275381,2.848685 2.848685,2.848685 h 12.344284 c 1.573313,0 2.848686,-1.275381 2.848686,-2.848685 z m 23.739023,0 V 48.721752 c 0,-1.573304 -1.27538,-2.848682 -2.84868,-2.848682 H 65.205386 c -1.573313,0 -2.848685,1.275378 -2.848685,2.848682 v 13.293852 c 0,1.573304 1.275372,2.848685 2.848685,2.848685 h 12.344287 c 1.5733,0 2.84868,-1.275381 2.84868,-2.848685 z m -5.69736,6.64693 c -3.146609,0 -5.697362,2.550753 -5.697362,5.697371 0,3.146601 2.550753,5.697362 5.697362,5.697362 3.1466,0 5.69736,-2.550761 5.69736,-5.697362 0,-3.146618 -2.55076,-5.697371 -5.69736,-5.697371 z m -30.385947,0 c -3.146618,0 -5.697371,2.550753 -5.697371,5.697371 0,3.146601 2.550753,5.697362 5.697371,5.697362 3.146601,0 5.697362,-2.550761 5.697362,-5.697362 0,-3.146618 -2.550761,-5.697371 -5.697362,-5.697371 z"
     id="path2-8" />
  <path
     inkscape:connector-curvature="0"
     style="fill:#000000;stroke-width:0.12575629;fill-opacity:0.36888888"
     d="m 111.15733,329.72982 c -1.87377,-0.0125 -3.65952,0.28925 -5.33206,0.86772 l -4.13739,-6.90401 h 10.36233 c 1.67255,0 3.01814,-1.3456 3.01814,-3.01816 v -4.02419 c 0,-1.67257 -1.34559,-3.01815 -3.01814,-3.01815 h -5.69677 c -0.85515,0 -1.67256,0.36469 -2.23846,0.99347 l -4.715863,5.24403 -2.86724,-4.77874 c -0.55332,-0.90544 -1.53423,-1.45876 -2.59059,-1.45876 h -10.0605 c -1.10665,0 -2.012093,0.90545 -2.012093,2.0121 v 2.01209 c 0,1.10666 0.905443,2.0121 2.012093,2.0121 h 8.35023 l 2.41451,4.02421 H 75.316783 c -2.225882,-2.90498 -5.646446,-5.03026 -12.563051,-5.03026 h -6.979468 c -1.697712,0 -3.118754,1.38333 -3.081029,3.08104 0.02508,1.63483 1.370742,2.95526 3.018153,2.95526 h 7.042344 c 3.081029,0 4.866774,1.37075 6.011157,3.11876 l -1.421051,2.578 c -1.634828,-0.49045 -3.382839,-0.7168 -5.193735,-0.65392 -8.463395,0.30181 -15.291957,7.23099 -15.493175,15.70696 -0.201202,9.06703 7.08008,16.47407 16.096804,16.47407 7.495075,0 13.795468,-5.13086 15.593788,-12.0726 h 10.588667 c 1.72287,0 3.09361,-1.43363 3.01816,-3.15649 -0.26409,-5.92312 2.20074,-11.78336 7.0675,-15.71953 l 1.571953,2.61573 c -3.470873,2.98042 -5.671613,7.40704 -5.633873,12.34926 0.0628,8.75265 7.193253,15.90818 15.945893,15.98363 9.00414,0.088 16.32318,-7.23098 16.24772,-16.23514 -0.0881,-8.75264 -7.24358,-15.89559 -15.99621,-15.95848 z m -48.403598,26.15731 c -5.545842,0 -10.060497,-4.51464 -10.060497,-10.0605 0,-5.54585 4.514655,-10.0605 10.060497,-10.0605 0.528187,0 1.056357,0.0378 1.571961,0.12576 l -5.218885,9.48202 c -1.106654,2.0121 0.35211,4.47693 2.640876,4.47693 h 10.223985 c -1.559377,3.54632 -5.105701,6.03629 -9.217937,6.03629 z m 58.338348,-9.50716 c -0.27667,5.1057 -4.40147,9.2305 -9.4946,9.49459 -5.79736,0.3144 -10.61383,-4.31344 -10.61383,-10.04793 0,-2.69118 1.05635,-5.13084 2.77921,-6.92916 l 6.21236,10.36231 c 0.56591,0.95575 1.8109,1.25756 2.76665,0.69165 l 1.72286,-1.0312 c 0.95574,-0.5659 1.25756,-1.81088 0.69165,-2.76663 l -6.11175,-10.17369 c 0.65392,-0.13832 1.32043,-0.20121 1.99953,-0.20121 5.73448,-0.0126 10.34973,4.80389 10.04792,10.60127 z"
     id="path2-3" />
  <path
     inkscape:connector-curvature="0"
     style="fill:#000000;stroke-width:0.13058072;fill-opacity:0.36888888"
     d="m 325.45955,303.06168 -17.56181,-21.07312 a 6.2691807,6.2691807 0 0 0 -4.81451,-2.25513 h -55.56471 c -2.30736,0 -4.17858,1.87122 -4.17858,4.17859 v 37.60725 c 0,2.30735 1.87122,4.17858 4.17858,4.17858 h 4.17858 c 0,6.92339 5.61236,12.53575 12.53575,12.53575 6.9234,0 12.53576,-5.61236 12.53576,-12.53575 h 16.71433 c 0,6.92339 5.61235,12.53575 12.53575,12.53575 6.92339,0 12.53574,-5.61236 12.53574,-12.53575 h 4.17859 c 2.30736,0 4.17858,-1.87123 4.17858,-4.17858 v -14.44485 c 0,-1.46642 -0.51449,-2.88583 -1.45205,-4.01274 z M 251.6971,300.62635 V 288.0906 h 12.53575 v 12.53575 z m 12.53575,31.33937 c -3.46169,0 -6.26788,-2.80618 -6.26788,-6.26787 0,-3.46169 2.80619,-6.26788 6.26788,-6.26788 3.4617,0 6.26788,2.80619 6.26788,6.26788 0,3.46169 -2.80618,6.26787 -6.26788,6.26787 z m 20.89292,-31.33937 H 272.59002 V 288.0906 h 12.53575 z m 20.89292,31.33937 c -3.4617,0 -6.26788,-2.80618 -6.26788,-6.26787 0,-3.46169 2.80618,-6.26788 6.26788,-6.26788 3.46169,0 6.26787,2.80619 6.26787,6.26788 0,3.46169 -2.80618,6.26787 -6.26787,6.26787 z M 293.48294,300.62635 V 288.0906 h 8.62094 l 10.44645,12.53575 z"
     id="path2-9" />
</svg>
